REM MD5 77dc8c9721776b8e080d5f7845b547c9
FILE "Actua Soccer - Club Edition (Europe).bin" BINARY
  TRACK 01 MODE2/2352
    INDEX 01 00:00:00
  TRACK 02 AUDIO
    INDEX 00 18:43:67
    INDEX 01 18:45:67
  TRACK 03 AUDIO
    INDEX 00 20:57:49
    INDEX 01 20:59:49
REM LEADOUT 25:00:29
